# xmcd
#
# Track frame offsets:
#       150
#       13902
#       32293
#       55057
#       70954
#       84379
#       97871
#       114182
#       126972
#       150994
#
# Disc length: 2418 seconds
#
# Revision: 2
# Processed by: cddbd v1.5.1PL0 Copyright (c) Steve Scherf et al.
# Submitted via: MusiCat 1.1
#
DISCID=6b09700a
DTITLE=Canned Heat - Boogie With Canned Heat
DYEAR=1968
DGENRE=
TTITLE0=Evil Woman
TTITLE1=My Crime
TTITLE2=On The Road Again
TTITLE3=World In A Jug
TTITLE4=Turpentine Moan
TTITLE5=Whisky Headed Woman # 2
TTITLE6=Amphetamine Annie
TTITLE7=An Owl song
TTITLE8=Marie Laveau
TTITLE9=Fried Hookey Boogie
EXTD=See For Miles\nSEE CD 62\n
EXTT0=
EXTT1=
EXTT2=
EXTT3=
EXTT4=
EXTT5=
EXTT6=
EXTT7=
EXTT8=
EXTT9=
PLAYORDER=
